HIERARCHY
ROOT Hips
{
	OFFSET -0.001795 -0.223333 0.028219
	CHANNELS 6 Xposition Yposition Zposition Zrotation Yrotation Xrotation 
	JOINT LeftUpLeg
	{
		OFFSET 0.069520 -0.091406 -0.006815
		CHANNELS 3 Zrotation Yrotation Xrotation
		JOINT LeftLeg
		{
			OFFSET 0.034277 -0.375199 -0.004496
			CHANNELS 3 Zrotation Yrotation Xrotation
			JOINT LeftFoot
			{
				OFFSET -0.013596 -0.397961 -0.043693
				CHANNELS 3 Zrotation Yrotation Xrotation
				JOINT LeftToe
				{
					OFFSET 0.026358 -0.055791 0.119288
					CHANNELS 3 Zrotation Yrotation Xrotation
					End Site
					{
						OFFSET 0.000000 0.000000 0.000000
					}
				}
			}
		}
	}
	JOINT RightUpLeg
	{
		OFFSET -0.067670 -0.090522 -0.004320
		CHANNELS 3 Zrotation Yrotation Xrotation
		JOINT RightLeg
		{
			OFFSET -0.038290 -0.382569 -0.008850
			CHANNELS 3 Zrotation Yrotation Xrotation
			JOINT RightFoot
			{
				OFFSET 0.015774 -0.398415 -0.042312
				CHANNELS 3 Zrotation Yrotation Xrotation
				JOINT RightToe
				{
					OFFSET -0.025372 -0.048144 0.123348
					CHANNELS 3 Zrotation Yrotation Xrotation
					End Site
					{
						OFFSET 0.000000 0.000000 0.000000
					}
				}
			}
		}
	}
	JOINT Spine
	{
		OFFSET -0.002533 0.108963 -0.026696
		CHANNELS 3 Zrotation Yrotation Xrotation
		JOINT Spine1
		{
			OFFSET 0.005487 0.135180 0.001092
			CHANNELS 3 Zrotation Yrotation Xrotation
			JOINT Spine2
			{
				OFFSET 0.001457 0.052922 0.025425
				CHANNELS 3 Zrotation Yrotation Xrotation
				JOINT Neck
				{
					OFFSET -0.002778 0.213870 -0.042857
					CHANNELS 3 Zrotation Yrotation Xrotation
					JOINT Head
					{
						OFFSET 0.005152 0.064970 0.051349
						CHANNELS 3 Zrotation Yrotation Xrotation
						End Site
						{
							OFFSET 0.000000 0.000000 0.000000
						}
					}
				}
				JOINT LeftShoulder
				{
					OFFSET 0.078845 0.121749 -0.034090
					CHANNELS 3 Zrotation Yrotation Xrotation
					JOINT LeftArm
					{
						OFFSET 0.090977 0.030469 -0.008868
						CHANNELS 3 Zrotation Yrotation Xrotation
						JOINT LeftForeArm
						{
							OFFSET 0.259612 -0.012772 -0.027456
							CHANNELS 3 Zrotation Yrotation Xrotation
							JOINT LeftHand
							{
								OFFSET 0.249234 0.008986 -0.001171
								CHANNELS 3 Zrotation Yrotation Xrotation
								End Site
								{
									OFFSET 0.000000 0.000000 0.000000
								}
							}
						}
					}
				}
				JOINT RightShoulder
				{
					OFFSET -0.081759 0.118833 -0.038615
					CHANNELS 3 Zrotation Yrotation Xrotation
					JOINT RightArm
					{
						OFFSET -0.096012 0.032551 -0.009143
						CHANNELS 3 Zrotation Yrotation Xrotation
						JOINT RightForeArm
						{
							OFFSET -0.253742 -0.013329 -0.021401
							CHANNELS 3 Zrotation Yrotation Xrotation
							JOINT RightHand
							{
								OFFSET -0.255298 0.007772 -0.005559
								CHANNELS 3 Zrotation Yrotation Xrotation
								End Site
								{
									OFFSET 0.000000 0.000000 0.000000
								}
							}
						}
					}
				}
			}
		}
	}
}
MOTION
Frames: 14
Frame Time: 0.050000
-0.044065 0.917408 0.836889 -4.651654 -8.597389 10.741373 17.614626 1.034555 -15.648650 -6.602154 1.024276 5.160372 6.066493 13.293033 8.011582 0.000000 0.000000 0.000000 -6.242955 1.669865 -21.219531 8.084120 -0.834114 8.427099 -5.634518 -16.572116 12.017936 0.000000 0.000000 0.000000 -5.666011 1.494148 34.124507 6.804048 -1.310425 -20.770328 3.569704 -1.049386 22.080307 -5.529050 3.726786 -44.231463 0.000000 0.000000 0.000000 -16.715990 -19.372418 10.643086 -34.454356 -54.428502 10.168155 45.870029 -53.672748 -19.204505 0.000000 0.000000 0.000000 8.686114 30.804078 12.313947 39.599015 48.009876 10.209040 -50.628446 55.072808 -24.292806 0.000000 0.000000 0.000000 
-0.042696 0.917325 0.834912 -4.657692 -8.786787 10.932877 17.562535 1.057079 -15.895931 -6.634860 1.031093 5.087432 6.171120 13.465892 8.076473 0.000000 0.000000 0.000000 -6.279947 1.701436 -21.543787 7.986447 -0.812199 8.326636 -5.538695 -16.458712 12.202884 0.000000 0.000000 0.000000 -5.739669 1.563794 34.389436 6.892430 -1.329440 -20.790666 3.647429 -0.898861 21.997559 -5.839136 3.836734 -43.872387 0.000000 0.000000 0.000000 -17.181772 -19.554392 10.824160 -34.175640 -54.399077 10.007081 45.380155 -53.821962 -19.029791 0.000000 0.000000 0.000000 9.143808 31.208146 12.612239 39.047332 48.447508 10.181835 -49.198627 54.153155 -22.977737 0.000000 0.000000 0.000000 
-0.041349 0.917249 0.833015 -4.657844 -8.746172 11.086566 17.519235 1.067613 -16.192085 -6.666719 1.033751 5.040409 6.172581 13.471619 8.104249 0.000000 0.000000 0.000000 -6.498820 1.702203 -21.874014 8.204635 -0.846334 8.350551 -5.556253 -16.531400 12.471174 0.000000 0.000000 0.000000 -5.788679 1.598990 34.667447 7.004314 -1.374098 -20.574901 3.617574 -0.799883 21.787930 -6.020725 3.911690 -43.651625 0.000000 0.000000 0.000000 -17.313941 -19.762961 10.929956 -34.158274 -54.626054 10.089915 44.881110 -53.755888 -18.766914 0.000000 0.000000 0.000000 9.580589 31.445698 12.849767 38.745957 48.945409 10.280350 -48.528935 53.248713 -22.106100 0.000000 0.000000 0.000000 
-0.040244 0.917342 0.831402 -4.602046 -8.639573 11.131364 17.485153 1.063548 -16.351417 -6.797368 1.050022 4.931698 6.123549 13.397806 8.183384 0.000000 0.000000 0.000000 -6.566025 1.693042 -21.916619 8.095287 -0.830018 8.142674 -5.581260 -16.593960 12.666829 0.000000 0.000000 0.000000 -5.701382 1.587794 35.167593 7.001595 -1.358452 -20.702092 3.526592 -0.977295 21.674220 -6.356827 4.016009 -43.148634 0.000000 0.000000 0.000000 -17.627664 -19.963679 11.133923 -33.535164 -54.563079 9.777149 44.741370 -53.748647 -18.700385 0.000000 0.000000 0.000000 10.226882 31.575575 13.038123 38.736404 49.016989 10.313135 -47.437290 53.187575 -21.485454 0.000000 0.000000 0.000000 
-0.039331 0.917203 0.830042 -4.600569 -8.466959 11.179670 17.452945 1.057178 -16.529235 -6.801194 1.044101 4.869501 6.060315 13.297720 8.151551 0.000000 0.000000 0.000000 -6.601989 1.687959 -21.996064 8.053003 -0.827604 8.053782 -5.652047 -16.721073 12.800123 0.000000 0.000000 0.000000 -5.633467 1.565171 35.540633 6.969417 -1.343277 -20.744163 3.555903 -1.035061 21.600632 -6.678165 4.132486 -43.180292 0.000000 0.000000 0.000000 -17.708324 -20.018852 11.172290 -33.611114 -54.573289 9.816554 44.544951 -53.946033 -18.682607 0.000000 0.000000 0.000000 10.335870 31.667787 13.116714 38.939138 48.912428 10.370038 -46.766746 53.166807 -21.103561 0.000000 0.000000 0.000000 
-0.038590 0.917430 0.828852 -4.580235 -8.312469 11.143307 17.283107 1.023544 -16.585441 -6.591256 0.999900 4.776912 5.986815 13.182797 8.204675 0.000000 0.000000 0.000000 -6.600841 1.674465 -21.915007 7.942604 -0.812708 7.864816 -5.689900 -16.794869 12.986043 0.000000 0.000000 0.000000 -5.541081 1.537304 35.957451 6.908682 -1.320231 -20.815051 3.496582 -1.168087 21.525866 -7.001929 4.242384 -43.152234 0.000000 0.000000 0.000000 -17.335081 -19.976747 11.078083 -33.792977 -54.633529 9.951203 44.778828 -53.871693 -18.768217 0.000000 0.000000 0.000000 10.214004 31.637901 13.070806 39.329960 48.937362 10.532620 -46.081407 53.191401 -20.752152 0.000000 0.000000 0.000000 
-0.038006 0.917580 0.827775 -4.524248 -8.176358 11.068716 17.160797 0.999633 -16.628988 -6.521437 0.983703 4.750201 5.914128 13.068473 8.248512 0.000000 0.000000 0.000000 -6.576323 1.672642 -21.951940 7.739637 -0.789054 7.970546 -5.736589 -16.876622 13.090412 0.000000 0.000000 0.000000 -5.538363 1.540531 36.332768 6.815860 -1.286463 -20.921949 3.606088 -1.177069 21.505748 -7.250678 4.340579 -42.999665 0.000000 0.000000 0.000000 -17.482212 -20.030529 11.121114 -33.635047 -54.487140 9.817186 44.532384 -54.269925 -18.819484 0.000000 0.000000 0.000000 9.897316 31.642722 13.015108 39.219552 48.701953 10.404215 -44.985932 53.651715 -20.389712 0.000000 0.000000 0.000000 
-0.037611 0.917912 0.826881 -4.425233 -8.000893 10.891649 16.912561 0.950904 -16.598847 -6.296945 0.941721 4.773963 5.809386 12.902902 8.311299 0.000000 0.000000 0.000000 -6.645213 1.648405 -21.883563 7.653596 -0.784113 8.108030 -5.797136 -16.974898 13.218051 0.000000 0.000000 0.000000 -5.522711 1.540195 36.850120 6.844871 -1.273939 -21.130822 3.546211 -1.173518 21.618922 -7.414611 4.415666 -42.976731 0.000000 0.000000 0.000000 -17.537046 -19.986949 11.077582 -33.715583 -54.519694 9.847752 43.861648 -54.351257 -18.514248 0.000000 0.000000 0.000000 9.518131 31.693896 12.973086 38.835620 48.530531 10.182955 -44.021945 53.795649 -19.943351 0.000000 0.000000 0.000000 
-0.037426 0.917762 0.826098 -4.324149 -7.768778 10.792232 16.833173 0.934373 -16.727632 -6.340461 0.949847 4.921504 5.698607 12.723366 8.260358 0.000000 0.000000 0.000000 -6.657006 1.632234 -21.848576 7.475415 -0.765450 8.192740 -5.909672 -17.140181 13.186546 0.000000 0.000000 0.000000 -5.507369 1.516834 37.102179 6.899730 -1.286557 -21.119343 3.575754 -1.044053 21.606691 -7.482535 4.470900 -42.881936 0.000000 0.000000 0.000000 -17.445707 -20.021540 11.010427 -33.502598 -54.649349 9.795744 43.261999 -54.330035 -18.238728 0.000000 0.000000 0.000000 8.856243 31.684588 12.865252 38.278108 48.742643 10.045063 -43.022232 53.262372 -19.162036 0.000000 0.000000 0.000000 
-0.037417 0.917778 0.825330 -4.226833 -7.555406 10.597749 16.731199 0.924519 -16.913541 -6.325638 0.958950 5.371070 5.580635 12.530352 8.218528 0.000000 0.000000 0.000000 -6.652949 1.610578 -21.718380 7.310670 -0.748333 8.295898 -6.002772 -17.272332 13.170207 0.000000 0.000000 0.000000 -5.512158 1.504391 37.409004 6.869877 -1.278380 -21.127795 3.637899 -0.868174 21.636295 -7.344802 4.459881 -42.744194 0.000000 0.000000 0.000000 -17.078113 -20.133618 10.916408 -33.337886 -55.062971 9.878315 42.938503 -53.958418 -17.981942 0.000000 0.000000 0.000000 8.141726 31.772698 12.788498 37.357419 49.014150 9.787511 -42.650810 52.468655 -18.614055 0.000000 0.000000 0.000000 
-0.037522 0.917551 0.824447 -4.173675 -7.431097 10.356439 16.664094 0.912666 -16.894098 -6.280300 0.956772 5.605091 5.507855 12.404544 8.120739 0.000000 0.000000 0.000000 -6.528788 1.603524 -21.542884 7.039739 -0.711617 8.394676 -6.058937 -17.337653 13.043524 0.000000 0.000000 0.000000 -5.510860 1.495868 37.642807 6.835466 -1.266285 -21.189010 3.769009 -0.729253 21.814236 -7.448241 4.529800 -42.517695 0.000000 0.000000 0.000000 -16.790521 -20.151880 10.812636 -33.079280 -55.569172 9.934190 42.851376 -53.674190 -17.870572 0.000000 0.000000 0.000000 7.288072 31.981502 12.706338 36.187538 49.421815 9.458449 -42.686581 51.398476 -18.185406 0.000000 0.000000 0.000000 
-0.037703 0.917376 0.823449 -4.184378 -7.177265 10.204776 16.643664 0.908845 -17.043765 -6.170484 0.942121 5.902258 5.386139 12.201845 8.035492 0.000000 0.000000 0.000000 -6.432935 1.592721 -21.411241 6.938756 -0.703149 8.416933 -6.172823 -17.503667 13.024410 0.000000 0.000000 0.000000 -5.363445 1.398053 37.640004 6.778812 -1.264984 -21.048124 3.868610 -0.531443 21.971975 -7.423478 4.562381 -42.403870 0.000000 0.000000 0.000000 -16.455808 -20.344961 10.768793 -32.806073 -56.101274 9.991201 43.204262 -53.465642 -18.036194 0.000000 0.000000 0.000000 6.405374 32.088260 12.585382 35.071091 49.972637 9.195755 -43.502949 50.337410 -18.120933 0.000000 0.000000 0.000000 
-0.037997 0.917266 0.822367 -4.128355 -7.087496 9.962143 16.522533 0.890318 -17.012001 -6.014837 0.919201 6.115735 5.322205 12.093134 7.999357 0.000000 0.000000 0.000000 -6.299668 1.585169 -21.191520 6.670300 -0.664042 8.407686 -6.204876 -17.534236 12.928636 0.000000 0.000000 0.000000 -5.387323 1.393946 37.696043 6.699790 -1.244030 -21.088843 3.924141 -0.335699 22.145772 -7.184040 4.512610 -42.203420 0.000000 0.000000 0.000000 -16.004526 -20.534955 10.714446 -32.645857 -56.470855 10.045555 43.801663 -53.257669 -18.315071 0.000000 0.000000 0.000000 5.737804 32.226727 12.508716 34.042413 50.700118 9.013705 -44.585667 49.191904 -18.137238 0.000000 0.000000 0.000000 
-0.038403 0.916977 0.821311 -4.182697 -7.035315 9.698242 16.638957 0.915260 -17.009759 -6.054676 0.938358 6.488006 5.277025 12.007763 7.895814 0.000000 0.000000 0.000000 -6.136181 1.578381 -20.911121 6.578433 -0.650817 8.339971 -6.222063 -17.538601 12.809572 0.000000 0.000000 0.000000 -5.359075 1.368054 37.662919 6.651564 -1.246815 -20.967718 4.062621 -0.048998 22.255854 -7.009826 4.490478 -42.128726 0.000000 0.000000 0.000000 -15.965435 -20.540076 10.629462 -32.667329 -57.011420 10.222269 44.180209 -53.242390 -18.549604 0.000000 0.000000 0.000000 5.384753 32.269095 12.467576 33.102372 51.396609 8.860938 -45.471648 48.045695 -18.029435 0.000000 0.000000 0.000000 
